<svg width="34" height="33" viewBox="0 0 34 33" fill="none" xmlns="http://www.w3.org/2000/svg">
<g id="Frame">
<path id="Vector (Stroke)" fill-rule="evenodd" clip-rule="evenodd" d="M7.15259 8.09399C7.15259 7.54171 7.6003 7.09399 8.15259 7.09399H26.1526C26.7049 7.09399 27.1526 7.54171 27.1526 8.09399C27.1526 8.64628 26.7049 9.09399 26.1526 9.09399H8.15259C7.6003 9.09399 7.15259 8.64628 7.15259 8.09399ZM7.15259 13.4273C7.15259 12.875 7.6003 12.4273 8.15259 12.4273H26.1526C26.7049 12.4273 27.1526 12.875 27.1526 13.4273C27.1526 13.9796 26.7049 14.4273 26.1526 14.4273H8.15259C7.6003 14.4273 7.15259 13.9796 7.15259 13.4273ZM7.15259 18.7607C7.15259 18.2084 7.6003 17.7607 8.15259 17.7607H26.1526C26.7049 17.7607 27.1526 18.2084 27.1526 18.7607C27.1526 19.3129 26.7049 19.7607 26.1526 19.7607H8.15259C7.6003 19.7607 7.15259 19.3129 7.15259 18.7607ZM7.15259 24.094C7.15259 23.5417 7.6003 23.094 8.15259 23.094H26.1526C26.7049 23.094 27.1526 23.5417 27.1526 24.094C27.1526 24.6463 26.7049 25.094 26.1526 25.094H8.15259C7.6003 25.094 7.15259 24.6463 7.15259 24.094Z" fill="black"/>
</g>
</svg>
