<svg width="90" height="90" viewBox="0 0 90 90" fill="none" xmlns="http://www.w3.org/2000/svg">
<path d="M81.5625 25.3125V64.6875C81.5625 66.9253 80.6736 69.0714 79.0912 70.6537C77.5089 72.2361 75.3628 73.125 73.125 73.125H16.875C14.6372 73.125 12.4911 72.2361 10.9088 70.6537C9.32645 69.0714 8.4375 66.9253 8.4375 64.6875V25.3125M81.5625 25.3125C81.5625 23.0747 80.6736 20.9286 79.0912 19.3463C77.5089 17.7639 75.3628 16.875 73.125 16.875H16.875C14.6372 16.875 12.4911 17.7639 10.9088 19.3463C9.32645 20.9286 8.4375 23.0747 8.4375 25.3125M81.5625 25.3125V26.2238C81.5627 27.6643 81.194 29.0809 80.4916 30.3386C79.7892 31.5963 78.7765 32.6533 77.55 33.4088L49.425 50.715C48.0945 51.5345 46.5626 51.9684 45 51.9684C43.4374 51.9684 41.9055 51.5345 40.575 50.715L12.45 33.4125C11.2235 32.657 10.2108 31.6001 9.50838 30.3424C8.80601 29.0846 8.43734 27.668 8.4375 26.2275V25.3125" stroke="black" stroke-width="5" stroke-linecap="round" stroke-linejoin="round"/>
</svg>
