<svg width="90" height="90" viewBox="0 0 90 90" fill="none" xmlns="http://www.w3.org/2000/svg">
<path d="M35.9774 14.775C36.3149 12.7425 38.0774 11.25 40.1399 11.25H49.8637C51.9262 11.25 53.6887 12.7425 54.0262 14.775L54.8249 19.5788C55.0612 20.9813 55.9987 22.1513 57.2437 22.8413C57.5212 22.9913 57.7949 23.1525 58.0687 23.3175C59.2874 24.0525 60.7687 24.2813 62.0999 23.7825L66.6637 22.0725C67.5989 21.7208 68.6286 21.7124 69.5695 22.0489C70.5103 22.3854 71.3011 23.0449 71.8012 23.91L76.6612 32.3363C77.1601 33.2014 77.336 34.2155 77.1575 35.1981C76.9789 36.1807 76.4576 37.0682 75.6862 37.7025L71.9249 40.8037C70.8262 41.7075 70.2824 43.1025 70.3124 44.5238C70.3177 44.8425 70.3177 45.1613 70.3124 45.48C70.2824 46.8975 70.8262 48.2925 71.9249 49.1963L75.6899 52.2975C77.2799 53.61 77.6924 55.8788 76.6649 57.66L71.7974 66.0862C71.2981 66.9511 70.5081 67.6108 69.5681 67.948C68.628 68.2852 67.5989 68.2779 66.6637 67.9275L62.0999 66.2175C60.7687 65.7188 59.2874 65.9475 58.0649 66.6825C57.7931 66.8479 57.518 67.0079 57.2399 67.1625C55.9987 67.8487 55.0612 69.0187 54.8249 70.4212L54.0262 75.225C53.6887 77.2612 51.9262 78.75 49.8637 78.75H40.1362C38.0737 78.75 36.3149 77.2575 35.9737 75.225L35.1749 70.4212C34.9424 69.0187 34.0049 67.8488 32.7599 67.1588C32.4818 67.0054 32.2068 66.8466 31.9349 66.6825C30.7162 65.9475 29.2349 65.7188 27.8999 66.2175L23.3362 67.9275C22.4014 68.2782 21.3725 68.286 20.4325 67.9496C19.4925 67.6131 18.7023 66.9542 18.2024 66.09L13.3387 57.6637C12.8397 56.7986 12.6638 55.7845 12.8424 54.8019C13.0209 53.8193 13.5423 52.9318 14.3137 52.2975L18.0787 49.1963C19.1737 48.2963 19.7174 46.8975 19.6912 45.48C19.6853 45.1613 19.6853 44.8425 19.6912 44.5238C19.7174 43.0988 19.1737 41.7075 18.0787 40.8037L14.3137 37.7025C13.5432 37.0684 13.0224 36.1816 12.8439 35.1998C12.6654 34.218 12.8407 33.2048 13.3387 32.34L18.2024 23.9137C18.7019 23.048 19.4925 22.3877 20.4333 22.0505C21.3742 21.7133 22.4043 21.7211 23.3399 22.0725L27.8999 23.7825C29.2349 24.2813 30.7162 24.0525 31.9349 23.3175C32.2049 23.1525 32.4824 22.995 32.7599 22.8375C34.0049 22.1513 34.9424 20.9813 35.1749 19.5788L35.9774 14.775Z" stroke="black" stroke-width="5" stroke-linecap="round" stroke-linejoin="round"/>
<path d="M56.25 45C56.25 47.9837 55.0647 50.8452 52.955 52.955C50.8452 55.0647 47.9837 56.25 45 56.25C42.0163 56.25 39.1548 55.0647 37.045 52.955C34.9353 50.8452 33.75 47.9837 33.75 45C33.75 42.0163 34.9353 39.1548 37.045 37.045C39.1548 34.9353 42.0163 33.75 45 33.75C47.9837 33.75 50.8452 34.9353 52.955 37.045C55.0647 39.1548 56.25 42.0163 56.25 45Z" stroke="black" stroke-width="5" stroke-linecap="round" stroke-linejoin="round"/>
</svg>
