<svg width="8" height="9" viewBox="0 0 8 9" fill="none" xmlns="http://www.w3.org/2000/svg">
<path fill-rule="evenodd" clip-rule="evenodd" d="M0.195191 0.703526C0.32021 0.578545 0.489748 0.508335 0.666524 0.508335C0.8433 0.508335 1.01284 0.578545 1.13786 0.703526L3.99986 3.56553L6.86186 0.703526C6.92336 0.639852 6.99692 0.589064 7.07826 0.554125C7.15959 0.519185 7.24707 0.500794 7.33559 0.500025C7.42411 0.499256 7.5119 0.516124 7.59383 0.549644C7.67576 0.583165 7.75019 0.632667 7.81279 0.695262C7.87538 0.757857 7.92489 0.832292 7.95841 0.914223C7.99193 0.996154 8.00879 1.08394 8.00803 1.17246C8.00726 1.26098 7.98887 1.34846 7.95393 1.4298C7.91899 1.51113 7.8682 1.58469 7.80452 1.64619L4.94252 4.50819L7.80452 7.37019C7.92596 7.49593 7.99316 7.66433 7.99164 7.83913C7.99012 8.01392 7.92001 8.18113 7.7964 8.30474C7.6728 8.42834 7.50559 8.49846 7.33079 8.49997C7.15599 8.50149 6.98759 8.4343 6.86186 8.31286L3.99986 5.45086L1.13786 8.31286C1.01212 8.4343 0.843721 8.50149 0.668923 8.49997C0.494126 8.49846 0.326917 8.42834 0.203312 8.30474C0.0797065 8.18113 0.00959371 8.01392 0.00807476 7.83913C0.00655582 7.66433 0.0737524 7.49593 0.195191 7.37019L3.05719 4.50819L0.195191 1.64619C0.0702104 1.52117 0 1.35163 0 1.17486C0 0.998083 0.0702104 0.828544 0.195191 0.703526Z" fill="white"/>
</svg>
