<svg width="14" height="15" viewBox="0 0 14 15" fill="none" xmlns="http://www.w3.org/2000/svg">
<path fill-rule="evenodd" clip-rule="evenodd" d="M1.75567 2.25567C2.8798 1.13153 4.40445 0.5 5.99422 0.5C7.58398 0.5 9.10863 1.13153 10.2328 2.25567C11.3569 3.3798 11.9884 4.90445 11.9884 6.49422C11.9884 7.75847 11.589 8.98154 10.8601 9.99475L13.7172 12.8518C14.0943 13.2289 14.0943 13.8402 13.7172 14.2172C13.3402 14.5943 12.7289 14.5943 12.3518 14.2172L9.49475 11.3601C8.48154 12.089 7.25847 12.4884 5.99422 12.4884C4.40445 12.4884 2.8798 11.8569 1.75567 10.7328C0.631532 9.60863 0 8.08398 0 6.49422C0 4.90445 0.631532 3.3798 1.75567 2.25567ZM5.99422 2.43096C4.91658 2.43096 3.88307 2.85905 3.12106 3.62106C2.35905 4.38307 1.93096 5.41658 1.93096 6.49422C1.93096 7.57186 2.35905 8.60536 3.12106 9.36737C3.88307 10.1294 4.91657 10.5575 5.99422 10.5575C7.07186 10.5575 8.10536 10.1294 8.86737 9.36737C9.62938 8.60536 10.0575 7.57186 10.0575 6.49422C10.0575 5.41658 9.62938 4.38307 8.86737 3.62106C8.10536 2.85905 7.07186 2.43096 5.99422 2.43096Z" fill="#7A7A7A"/>
</svg>
