<svg width="90" height="90" viewBox="0 0 90 90" fill="none" xmlns="http://www.w3.org/2000/svg">
<path d="M50.625 63.2188H63.2812M63.2812 63.2188H75.9375M63.2812 63.2188V50.5625M63.2812 63.2188V75.875M22.5 39.3125H30.9375C33.1753 39.3125 35.3214 38.4236 36.9037 36.8412C38.4861 35.2589 39.375 33.1128 39.375 30.875V22.4375C39.375 20.1997 38.4861 18.0536 36.9037 16.4713C35.3214 14.8889 33.1753 14 30.9375 14H22.5C20.2622 14 18.1161 14.8889 16.5338 16.4713C14.9514 18.0536 14.0625 20.1997 14.0625 22.4375V30.875C14.0625 33.1128 14.9514 35.2589 16.5338 36.8412C18.1161 38.4236 20.2622 39.3125 22.5 39.3125ZM22.5 75.875H30.9375C33.1753 75.875 35.3214 74.9861 36.9037 73.4037C38.4861 71.8214 39.375 69.6753 39.375 67.4375V59C39.375 56.7622 38.4861 54.6161 36.9037 53.0338C35.3214 51.4514 33.1753 50.5625 30.9375 50.5625H22.5C20.2622 50.5625 18.1161 51.4514 16.5338 53.0338C14.9514 54.6161 14.0625 56.7622 14.0625 59V67.4375C14.0625 69.6753 14.9514 71.8214 16.5338 73.4037C18.1161 74.9861 20.2622 75.875 22.5 75.875ZM59.0625 39.3125H67.5C69.7378 39.3125 71.8839 38.4236 73.4662 36.8412C75.0486 35.2589 75.9375 33.1128 75.9375 30.875V22.4375C75.9375 20.1997 75.0486 18.0536 73.4662 16.4713C71.8839 14.8889 69.7378 14 67.5 14H59.0625C56.8247 14 54.6786 14.8889 53.0963 16.4713C51.5139 18.0536 50.625 20.1997 50.625 22.4375V30.875C50.625 33.1128 51.5139 35.2589 53.0963 36.8412C54.6786 38.4236 56.8247 39.3125 59.0625 39.3125Z" stroke="black" stroke-width="5" stroke-linecap="round" stroke-linejoin="round"/>
</svg>
